<svg width="39" height="40" viewBox="0 0 39 40" fill="none" xmlns="http://www.w3.org/2000/svg">
<g filter="url(#filter0_d_1763_32)">
<path d="M19.4815 0C13.338 0 8.21411 4.52938 8.21411 10.3125C8.21411 12.5126 8.93645 14.4745 10.3227 16.3129L18.6192 28.1616C19.0217 28.7376 19.9421 28.7365 20.3437 28.1616L28.6762 16.2726C30.0326 14.5175 30.7488 12.4567 30.7488 10.3125C30.7488 4.62619 25.6943 0 19.4815 0ZM19.4815 15C16.6576 15 14.3599 12.8971 14.3599 10.3125C14.3599 7.72794 16.6576 5.625 19.4815 5.625C22.3053 5.625 24.603 7.72794 24.603 10.3125C24.603 12.8971 22.3053 15 19.4815 15Z" fill="#CD06FF"/>
<path d="M27.4891 21.5435L22.3313 28.9239C20.9962 30.829 17.9593 30.8228 16.6306 28.9257L11.4644 21.5454C6.91897 22.5073 4.11688 24.2693 4.11688 26.375C4.11688 30.0289 12.0333 32 19.4815 32C26.9297 32 34.846 30.0289 34.846 26.375C34.846 24.2678 32.0401 22.5048 27.4891 21.5435Z" fill="#CD06FF"/>
</g>
<defs>
<filter id="filter0_d_1763_32" x="-2" y="0" width="42.963" height="40" filterUnits="userSpaceOnUse" color-interpolation-filters="sRGB">
<feFlood flood-opacity="0" result="BackgroundImageFix"/>
<feColorMatrix in="SourceAlpha" type="matrix" values="0 0 0 0 0 0 0 0 0 0 0 0 0 0 0 0 0 0 127 0" result="hardAlpha"/>
<feOffset dy="4"/>
<feGaussianBlur stdDeviation="2"/>
<feComposite in2="hardAlpha" operator="out"/>
<feColorMatrix type="matrix" values="0 0 0 0 0 0 0 0 0 0 0 0 0 0 0 0 0 0 0.25 0"/>
<feBlend mode="normal" in2="BackgroundImageFix" result="effect1_dropShadow_1763_32"/>
<feBlend mode="normal" in="SourceGraphic" in2="effect1_dropShadow_1763_32" result="shape"/>
</filter>
</defs>
</svg>
